<?xml version="1.0" ?><svg viewBox="0 0 64 64" xmlns="http://www.w3.org/2000/svg" xmlns:xlink="http://www.w3.org/1999/xlink"><defs><style>.cls-1{fill:url(#linear-gradient);}.cls-2{fill:#fff;}</style><linearGradient gradientTransform="translate(64 64) rotate(-180)" gradientUnits="userSpaceOnUse" id="linear-gradient" x1="58.98" x2="3.78" y1="3.85" y2="61.44"><stop offset="0" stop-color="#ffa22e"/><stop offset="0.33" stop-color="#fb622d"/><stop offset="0.64" stop-color="#f82f2d"/><stop offset="0.87" stop-color="#f60f2c"/><stop offset="1" stop-color="#f5032c"/></linearGradient></defs><title/><g data-name="20-reddit" id="_20-reddit"><rect class="cls-1" height="64" rx="11.2" ry="11.2" transform="translate(64 64) rotate(180)" width="64"/><path class="cls-2" d="M53.8,32.3a4.81,4.81,0,0,0-5-4.6,5.29,5.29,0,0,0-3.19,1.06A22.31,22.31,0,0,0,33,24.54l2-10.08,7.39,1.71s0,.09,0,.13a3.65,3.65,0,1,0,.43-1.67l-8.25-1.91a.77.77,0,0,0-.61.11.76.76,0,0,0-.35.51L31.38,24.52a22.38,22.38,0,0,0-13,4.24A5.29,5.29,0,0,0,15.2,27.7a4.81,4.81,0,0,0-5,4.6,4.62,4.62,0,0,0,3.29,4.32,9.29,9.29,0,0,0-.09,1.28c0,7.39,8.34,13.4,18.6,13.4s18.6-6,18.6-13.4a9.29,9.29,0,0,0-.09-1.28A4.62,4.62,0,0,0,53.8,32.3ZM21.6,35.1a3.2,3.2,0,1,1,3.2,3.2A3.2,3.2,0,0,1,21.6,35.1Zm18.26,9A13.49,13.49,0,0,1,32,46.3a13.49,13.49,0,0,1-7.86-2.16.81.81,0,0,1,1-1.28A11.82,11.82,0,0,0,32,44.7a11.82,11.82,0,0,0,6.88-1.84.81.81,0,0,1,1,1.28ZM39.2,38.3a3.2,3.2,0,1,1,3.2-3.2A3.2,3.2,0,0,1,39.2,38.3Z"/></g></svg>